<!-- Generated by IcoMoon.io -->
<svg version="1.1" xmlns="http://www.w3.org/2000/svg" width="448" height="448" viewBox="0 0 448 448">
<title></title>
<g id="icomoon-ignore">
</g>
<path fill="#000" d="M441 2.75c5.25 3.75 7.75 9.75 6.75 16l-64 384c-0.75 4.75-3.75 8.75-8 11.25-2.25 1.25-5 2-7.75 2-2 0-4-0.5-6-1.25l-131.75-53.75-74.5 81.75c-3 3.5-7.25 5.25-11.75 5.25-2 0-4-0.25-5.75-1-6.25-2.5-10.25-8.5-10.25-15v-113l-118-48.25c-5.75-2.25-9.5-7.5-10-13.75-0.5-6 2.75-11.75 8-14.75l416-240c5.25-3.25 12-3 17 0.5zM355.5 377.5l55.25-330.75-358.5 206.75 84 34.25 215.75-159.75-119.5 199.25z"></path>
</svg>
